<svg xmlns="http://www.w3.org/2000/svg" xmlns:xlink="http://www.w3.org/1999/xlink" width="560" height="160"><defs><path id="a" d="M-13.102-27.894h382.818V188.5H-13.102z"/></defs><clipPath id="b"><use xlink:href="#a" overflow="visible"/></clipPath><path clip-path="url(#b)" fill="#58B847" d="M93.757 6.862l.652 10.993c.029.715.64 1.262 1.356 1.219a50.85 50.85 0 0 1 3.008-.096c1.087 0 1.938.037 3.008.096a1.285 1.285 0 0 0 1.364-1.219l.644-10.993a1.281 1.281 0 0 0-1.205-1.334 69.525 69.525 0 0 0-3.811-.112c-1.281 0-2.547.043-3.809.112a1.283 1.283 0 0 0-1.207 1.334"/><path clip-path="url(#b)" fill="#211C50" d="M74.91 10.668l3.47 10.446a1.28 1.28 0 0 0 1.631.829 50.619 50.619 0 0 1 2.877-.87 50.435 50.435 0 0 1 2.935-.688c.7-.144 1.15-.832.992-1.529L84.598 8.067a1.285 1.285 0 0 0-1.512-.981 66.55 66.55 0 0 0-7.359 1.982 1.28 1.28 0 0 0-.817 1.6M57.69 19.219l6.055 9.194a1.271 1.271 0 0 0 1.782.378 52.832 52.832 0 0 1 2.56-1.59 44.888 44.888 0 0 1 2.657-1.417 1.287 1.287 0 0 0 .563-1.738l-4.937-9.842a1.278 1.278 0 0 0-1.71-.555 72.73 72.73 0 0 0-3.356 1.803 74.758 74.758 0 0 0-3.242 2.003 1.283 1.283 0 0 0-.372 1.764M43.265 31.939l8.229 7.312a1.277 1.277 0 0 0 1.821-.098 52.506 52.506 0 0 1 2.061-2.201 53.575 53.575 0 0 1 2.195-2.057 1.282 1.282 0 0 0 .101-1.824l-7.319-8.225a1.27 1.27 0 0 0-1.792-.094 65.055 65.055 0 0 0-5.393 5.389 1.286 1.286 0 0 0 .097 1.798"/><path clip-path="url(#b)" fill="#58B847" d="M32.625 47.955l9.843 4.931a1.272 1.272 0 0 0 1.732-.565 47.406 47.406 0 0 1 3.011-5.208 1.287 1.287 0 0 0-.378-1.791l-9.196-6.056a1.278 1.278 0 0 0-1.757.374 70.362 70.362 0 0 0-2.005 3.245 72.664 72.664 0 0 0-1.806 3.354 1.283 1.283 0 0 0 .556 1.716"/><path clip-path="url(#b)" fill="#211C50" d="M26.492 66.175l10.782 2.219a1.277 1.277 0 0 0 1.534-.991c.22-1.053.403-1.88.684-2.931.282-1.05.54-1.864.875-2.885a1.276 1.276 0 0 0-.828-1.625l-10.45-3.471a1.28 1.28 0 0 0-1.604.816 71.79 71.79 0 0 0-1.097 3.655 71.298 71.298 0 0 0-.876 3.712 1.27 1.27 0 0 0 .98 1.501"/><path clip-path="url(#b)" fill="#58B847" d="M25.285 85.369l10.991-.647a1.284 1.284 0 0 0 1.223-1.36 49.937 49.937 0 0 1-.096-3.009c0-1.084.036-1.936.096-3.011a1.277 1.277 0 0 0-1.223-1.353l-10.991-.646a1.278 1.278 0 0 0-1.337 1.199 72.09 72.09 0 0 0-.108 3.812c0 1.285.042 2.549.108 3.815.037.69.639 1.227 1.337 1.2"/><path clip-path="url(#b)" fill="#211C50" d="M29.088 104.216l10.448-3.465c.681-.22 1.054-.95.83-1.625a51.63 51.63 0 0 1-.875-2.889 52.291 52.291 0 0 1-.684-2.929 1.292 1.292 0 0 0-1.534-1.002l-10.782 2.228a1.276 1.276 0 0 0-.981 1.503 73.36 73.36 0 0 0 .876 3.711 71.696 71.696 0 0 0 1.098 3.655 1.273 1.273 0 0 0 1.604.813M37.637 121.44l9.196-6.054c.603-.379.77-1.183.378-1.789a45.619 45.619 0 0 1-1.586-2.555 46.352 46.352 0 0 1-1.425-2.655c-.32-.64-1.1-.897-1.732-.564l-9.843 4.935a1.278 1.278 0 0 0-.556 1.712 70.753 70.753 0 0 0 1.806 3.355 71.039 71.039 0 0 0 2.005 3.239 1.27 1.27 0 0 0 1.757.376"/><path clip-path="url(#b)" fill="#58B847" d="M50.353 135.867l7.319-8.23a1.279 1.279 0 0 0-.101-1.821 51.633 51.633 0 0 1-2.196-2.06 53.743 53.743 0 0 1-2.059-2.198 1.274 1.274 0 0 0-1.821-.1l-8.229 7.318a1.286 1.286 0 0 0-.097 1.799 73.931 73.931 0 0 0 2.617 2.773 65.218 65.218 0 0 0 2.776 2.608 1.27 1.27 0 0 0 1.791-.089"/><path clip-path="url(#b)" fill="#211C50" d="M66.371 146.506l4.937-9.84a1.287 1.287 0 0 0-.563-1.74 46.163 46.163 0 0 1-2.658-1.417 49.645 49.645 0 0 1-2.559-1.594 1.279 1.279 0 0 0-1.782.383l-6.056 9.193a1.275 1.275 0 0 0 .373 1.758 70.167 70.167 0 0 0 3.242 2.004 73.247 73.247 0 0 0 3.356 1.806 1.278 1.278 0 0 0 1.71-.553M84.598 152.64l2.217-10.786a1.272 1.272 0 0 0-.992-1.527 54.37 54.37 0 0 1-2.935-.688 59.97 59.97 0 0 1-2.877-.87 1.278 1.278 0 0 0-1.631.823l-3.47 10.453a1.282 1.282 0 0 0 .818 1.602c1.2.392 2.421.764 3.651 1.093 1.236.333 2.476.619 3.708.877a1.275 1.275 0 0 0 1.511-.977"/><path clip-path="url(#b)" fill="#58B847" d="M103.79 153.847l-.647-10.994a1.287 1.287 0 0 0-1.361-1.223c-1.069.061-1.921.1-3.008.1s-1.936-.04-3.008-.1a1.28 1.28 0 0 0-1.356 1.223l-.652 10.994a1.284 1.284 0 0 0 1.208 1.333c1.262.073 2.528.119 3.809.119 1.283 0 2.552-.046 3.811-.119a1.283 1.283 0 0 0 1.204-1.333"/><path clip-path="url(#b)" fill="#211C50" d="M122.64 150.044l-3.47-10.453a1.277 1.277 0 0 0-1.626-.823c-1.021.33-1.832.584-2.883.87a52.164 52.164 0 0 1-2.93.688 1.276 1.276 0 0 0-.999 1.527l2.221 10.786a1.275 1.275 0 0 0 1.508.978 67.101 67.101 0 0 0 3.711-.877 71.124 71.124 0 0 0 3.654-1.093 1.283 1.283 0 0 0 .814-1.603"/><path clip-path="url(#b)" fill="#58B847" d="M139.862 141.492l-6.053-9.193a1.289 1.289 0 0 0-1.789-.383 48.228 48.228 0 0 1-2.559 1.594c-.94.542-1.696.937-2.656 1.417a1.29 1.29 0 0 0-.566 1.74l4.939 9.84a1.282 1.282 0 0 0 1.71.557 70.81 70.81 0 0 0 3.36-1.808 76.063 76.063 0 0 0 3.241-2.004c.588-.381.75-1.174.373-1.76M159.912 39.267l-9.196 6.056a1.283 1.283 0 0 0-.376 1.791 49.105 49.105 0 0 1 1.588 2.552c.543.942.934 1.699 1.422 2.656.321.639 1.1.902 1.736.565l9.84-4.931a1.288 1.288 0 0 0 .558-1.716 74.627 74.627 0 0 0-1.809-3.354 71.015 71.015 0 0 0-2.004-3.245 1.28 1.28 0 0 0-1.759-.374"/><path clip-path="url(#b)" fill="#211C50" d="M147.194 24.846l-7.314 8.225a1.281 1.281 0 0 0 .099 1.824 52.235 52.235 0 0 1 2.195 2.059c.766.767 1.342 1.4 2.059 2.203a1.283 1.283 0 0 0 1.823.094l8.23-7.312c.518-.477.56-1.28.096-1.797a65.03 65.03 0 0 0-5.392-5.389 1.275 1.275 0 0 0-1.796.093"/><path clip-path="url(#b)" fill="#58B847" d="M131.178 14.204l-4.939 9.842a1.292 1.292 0 0 0 .566 1.738c.96.481 1.716.874 2.656 1.417a49.941 49.941 0 0 1 2.559 1.59c.601.392 1.401.23 1.789-.378l6.053-9.194a1.282 1.282 0 0 0-.373-1.763 75.994 75.994 0 0 0-3.241-2 65.287 65.287 0 0 0-3.36-1.806 1.278 1.278 0 0 0-1.71.554"/><path clip-path="url(#b)" fill="#211C50" d="M112.952 8.067l-2.221 10.789a1.278 1.278 0 0 0 .999 1.529c1.051.223 1.881.404 2.93.688 1.051.282 1.862.534 2.883.87a1.278 1.278 0 0 0 1.626-.829l3.47-10.446a1.277 1.277 0 0 0-.816-1.601 64.778 64.778 0 0 0-3.654-1.096 68.126 68.126 0 0 0-3.711-.886 1.284 1.284 0 0 0-1.506.982"/><path clip-path="url(#b)" fill="#58B847" d="M95.695 35.206l.397 6.748a.788.788 0 0 0 .834.752 29.968 29.968 0 0 1 1.849-.061c.669 0 1.192.023 1.85.061a.787.787 0 0 0 .834-.752l.402-6.748a.797.797 0 0 0-.742-.829 45.534 45.534 0 0 0-2.344-.064c-.787 0-1.565.024-2.342.064a.793.793 0 0 0-.738.829"/><path clip-path="url(#b)" fill="#211C50" d="M84.113 37.54l2.13 6.423a.796.796 0 0 0 1.003.504 25.29 25.29 0 0 1 1.769-.535 34.004 34.004 0 0 1 1.801-.423.789.789 0 0 0 .614-.942l-1.368-6.618a.786.786 0 0 0-.922-.612c-.763.164-1.523.34-2.281.548-.759.198-1.506.428-2.243.667a.788.788 0 0 0-.503.988M73.526 42.79l3.721 5.654a.8.8 0 0 0 1.098.233c.557-.364.996-.645 1.572-.982.584-.332 1.045-.57 1.632-.865a.796.796 0 0 0 .352-1.072l-3.035-6.044a.78.78 0 0 0-1.053-.339c-.689.348-1.378.71-2.059 1.106-.681.393-1.341.805-1.996 1.224a.8.8 0 0 0-.232 1.085M64.67 50.606l5.056 4.494a.781.781 0 0 0 1.118-.062c.438-.493.791-.879 1.267-1.348.472-.468.855-.83 1.349-1.264a.787.787 0 0 0 .058-1.122l-4.494-5.056a.789.789 0 0 0-1.104-.058 45.623 45.623 0 0 0-1.702 1.602c-.558.56-1.09 1.129-1.605 1.713a.78.78 0 0 0 .057 1.101"/><path clip-path="url(#b)" fill="#58B847" d="M58.131 60.45l6.043 3.026a.791.791 0 0 0 1.072-.344c.295-.588.539-1.05.873-1.632.333-.58.617-1.019.974-1.568a.783.783 0 0 0-.231-1.099l-5.651-3.723a.781.781 0 0 0-1.08.229c-.426.65-.837 1.316-1.233 1.996-.39.678-.756 1.365-1.109 2.062a.79.79 0 0 0 .342 1.053"/><path clip-path="url(#b)" fill="#211C50" d="M54.36 71.647l6.626 1.363a.798.798 0 0 0 .944-.614c.133-.643.25-1.157.415-1.8.177-.646.335-1.146.538-1.772a.785.785 0 0 0-.506-1.002l-6.423-2.13a.782.782 0 0 0-.979.501 41.606 41.606 0 0 0-.678 2.248 41.889 41.889 0 0 0-.536 2.276.793.793 0 0 0 .599.93"/><path clip-path="url(#b)" fill="#58B847" d="M53.623 83.438l6.752-.397a.79.79 0 0 0 .752-.838 29.824 29.824 0 0 1-.059-1.85c0-.664.021-1.19.059-1.845a.795.795 0 0 0-.752-.842l-6.752-.391a.79.79 0 0 0-.825.738 44.355 44.355 0 0 0-.067 2.339c0 .791.026 1.568.067 2.341a.792.792 0 0 0 .825.745"/><path clip-path="url(#b)" fill="#211C50" d="M55.955 95.021l6.423-2.133a.783.783 0 0 0 .506-.998 38.097 38.097 0 0 1-.538-1.775 35.771 35.771 0 0 1-.415-1.804.797.797 0 0 0-.943-.61l-6.627 1.364a.788.788 0 0 0-.598.926c.16.764.332 1.519.536 2.278.206.761.434 1.504.678 2.247.13.405.57.632.978.505M61.21 105.598l5.651-3.72a.782.782 0 0 0 .231-1.097 33.34 33.34 0 0 1-.974-1.569 29.98 29.98 0 0 1-.873-1.634.796.796 0 0 0-1.072-.349l-6.043 3.04a.775.775 0 0 0-.342 1.043c.353.694.721 1.383 1.109 2.068.396.681.807 1.345 1.233 1.99a.782.782 0 0 0 1.08.228"/><path clip-path="url(#b)" fill="#58B847" d="M69.023 114.466l4.494-5.059a.788.788 0 0 0-.056-1.122 27.633 27.633 0 0 1-1.35-1.264c-.476-.476-.829-.866-1.267-1.349a.784.784 0 0 0-1.118-.064l-5.056 4.496a.78.78 0 0 0-.058 1.1 38.933 38.933 0 0 0 3.307 3.316.795.795 0 0 0 1.104-.054"/><path clip-path="url(#b)" fill="#211C50" d="M78.866 120.998l3.035-6.049a.784.784 0 0 0-.352-1.063 39.777 39.777 0 0 1-1.632-.875c-.576-.331-1.015-.615-1.572-.973a.788.788 0 0 0-1.098.229l-3.721 5.652a.797.797 0 0 0 .231 1.084c.655.417 1.315.838 1.996 1.226.681.396 1.37.76 2.059 1.113a.789.789 0 0 0 1.054-.344M90.062 124.761l1.368-6.623a.788.788 0 0 0-.614-.939 31.402 31.402 0 0 1-1.801-.416 27.472 27.472 0 0 1-1.769-.54.79.79 0 0 0-1.003.511l-2.13 6.419c-.13.409.091.85.503.985.737.239 1.482.469 2.242.668.759.206 1.519.38 2.282.543a.778.778 0 0 0 .922-.608"/><path clip-path="url(#b)" fill="#58B847" d="M101.86 125.508l-.402-6.752a.786.786 0 0 0-.834-.75c-.657.035-1.181.055-1.85.055a32.5 32.5 0 0 1-1.849-.055.787.787 0 0 0-.834.75l-.397 6.752a.79.79 0 0 0 .737.82c.777.042 1.555.067 2.342.067.788 0 1.565-.025 2.344-.067a.793.793 0 0 0 .743-.82"/><path clip-path="url(#b)" fill="#211C50" d="M113.438 123.173l-2.135-6.419a.786.786 0 0 0-1-.511c-.626.209-1.124.364-1.768.54-.648.167-1.159.286-1.8.42a.774.774 0 0 0-.61.935l1.361 6.623c.09.425.507.7.925.61a45.353 45.353 0 0 0 2.279-.543 36.6 36.6 0 0 0 2.244-.673.783.783 0 0 0 .504-.982"/><path clip-path="url(#b)" fill="#58B847" d="M124.022 117.919l-3.722-5.653a.79.79 0 0 0-1.098-.229c-.551.357-.994.642-1.571.973-.579.334-1.042.573-1.63.875a.784.784 0 0 0-.35 1.063l3.033 6.049a.787.787 0 0 0 1.051.344c.691-.353 1.38-.717 2.062-1.113a44.089 44.089 0 0 0 1.995-1.226.794.794 0 0 0 .23-1.083M136.338 55.111l-5.649 3.723a.784.784 0 0 0-.231 1.099c.359.549.643.988.976 1.568.333.581.577 1.044.873 1.632a.785.785 0 0 0 1.066.344l6.049-3.026a.79.79 0 0 0 .339-1.051 41.358 41.358 0 0 0-1.111-2.062 41.061 41.061 0 0 0-1.233-1.996.778.778 0 0 0-1.079-.231"/><path clip-path="url(#b)" fill="#211C50" d="M128.524 46.248l-4.495 5.056a.79.79 0 0 0 .062 1.122 29.586 29.586 0 0 1 2.617 2.612.78.78 0 0 0 1.119.062l5.056-4.494a.785.785 0 0 0 .056-1.102 39.72 39.72 0 0 0-1.606-1.713 46.521 46.521 0 0 0-1.704-1.602.79.79 0 0 0-1.105.059"/><path clip-path="url(#b)" fill="#58B847" d="M118.684 39.714l-3.033 6.044a.79.79 0 0 0 .35 1.068c.588.299 1.051.537 1.63.869.578.337 1.021.618 1.571.982a.802.802 0 0 0 1.098-.233l3.722-5.654a.796.796 0 0 0-.231-1.084 46.954 46.954 0 0 0-1.995-1.224 38.482 38.482 0 0 0-2.062-1.106.776.776 0 0 0-1.05.338"/><path clip-path="url(#b)" fill="#211C50" d="M107.486 35.949l-1.36 6.618a.78.78 0 0 0 .61.942c.642.137 1.152.252 1.8.423.644.167 1.142.327 1.768.535a.79.79 0 0 0 1-.504l2.135-6.423a.796.796 0 0 0-.503-.989 42.197 42.197 0 0 0-2.243-.667 42.85 42.85 0 0 0-2.28-.548.793.793 0 0 0-.927.613M119.702 100.142c-5.527 5.452-12.67 7.99-20.424 7.99-19.968 0-28.413-13.75-28.488-27.719-.076-14.053 9.06-28.338 28.488-28.338 7.291 0 14.204 2.769 19.73 8.219l-6.755 6.526c-3.531-3.453-8.294-5.067-12.976-5.067-12.978 0-18.582 9.674-18.505 18.66.074 8.9 5.219 18.194 18.505 18.194 4.682 0 9.981-1.916 13.515-5.444l6.91 6.979z"/><path clip-path="url(#b)" fill="#211C50" d="M159.319 69.044l-23.112 53.68h-10.291l7.067-16.437-15.127-37.243h10.903l5.758 16.357 3.612 10.672 3.917-10.442 6.91-16.587zM164.606 122.724v-53.68h8.751l.618 5.229c2.915-4.226 7.983-6.07 12.283-6.07 11.673 0 19.429 8.675 19.429 19.81 0 11.057-6.99 19.814-19.123 19.814-3.992 0-9.901-1.231-12.589-5.374v20.271h-9.369zm31.712-34.711c0-5.911-3.993-10.749-10.751-10.749-6.756 0-10.75 4.838-10.75 10.749s4.378 10.753 10.75 10.753c6.373.001 10.751-4.842 10.751-10.753M222.288 53.152v21.04c3.38-4.377 7.527-5.682 11.83-5.682 10.75 0 15.51 7.29 15.51 18.428v19.96h-9.364V87.017c0-6.909-3.608-9.828-8.605-9.828-5.524 0-9.37 4.678-9.37 10.365v19.344h-9.363V53.152h9.362zM266.042 91.318c.614 4.679 4.683 8.059 11.288 8.059 3.458 0 7.984-1.301 10.136-3.529l5.983 5.912c-3.99 4.146-10.513 6.144-16.275 6.144-13.054 0-20.811-8.066-20.811-20.197 0-11.52 7.834-19.81 20.123-19.81 12.665 0 20.579 7.831 19.116 23.423h-29.56zm20.578-7.758c-.615-4.914-4.453-7.374-9.83-7.374-5.062 0-9.214 2.46-10.593 7.374h20.423zM311.594 69.044l.69 4.379c2.921-4.687 6.838-5.378 10.675-5.378 3.918 0 7.678 1.541 9.755 3.613l-4.227 8.136c-1.919-1.613-3.688-2.46-6.759-2.46-4.915 0-9.444 2.614-9.444 9.603v19.96h-9.368V69.044h8.678zM154.196 129.532l-8.182-7.371a1.286 1.286 0 0 0-1.824.087c-.722.794-1.3 1.416-2.074 2.182a53.779 53.779 0 0 1-2.211 2.047 1.278 1.278 0 0 0-.107 1.822l7.258 8.277c.47.516 1.271.568 1.795.107.948-.838 1.881-1.7 2.792-2.598a75.038 75.038 0 0 0 2.636-2.758 1.284 1.284 0 0 0-.083-1.795"/><g fill="#211C50"><path d="M417.738 61.904v12.12c0 10.198-13.438 10.226-13.438 0v-12.12h1.329v12.12c0 8.387 10.78 8.359 10.78 0v-12.12h1.329zM422.025 61.904l11.809 16.132V61.904h1.328v19.504h-.526l-11.833-16.104v16.104h-1.354V61.904h.576zM440.427 61.904v18.083h9.878v1.421h-11.231V61.904h1.353zM469.282 71.684c-.024 5.127-2.958 10.059-8.85 10.059s-8.85-4.959-8.85-10.114c0-5.238 2.933-10.03 8.85-10.03s8.876 4.818 8.85 10.085zm-16.371-.028c.025 4.402 2.532 8.693 7.521 8.693 5.014 0 7.546-4.291 7.546-8.693 0-4.514-2.507-8.665-7.546-8.665s-7.545 4.068-7.521 8.665zM486.981 78.705c-1.755 1.95-4.086 2.926-6.393 2.926-5.917 0-9-4.598-9.025-9.864-.05-5.21 3.009-10.086 9.025-10.086 2.307 0 4.638.975 6.393 2.925l-.928.892c-1.504-1.671-3.484-2.479-5.465-2.479-5.114 0-7.747 4.012-7.722 8.693.05 4.57 2.657 8.526 7.722 8.526 1.98 0 3.986-.836 5.49-2.479l.903.946zM502.5 81.408h-1.705l-9.251-9.613v9.585h-1.354V61.904h1.354v8.888l8.523-8.888h1.63v.14l-8.824 9.194 9.627 10.059v.111zM504.305 81.408V61.904h1.328v19.504h-1.328zM510.096 61.904l11.809 16.132V61.904h1.328v19.504h-.526l-11.833-16.104v16.104h-1.354V61.904h.576zM540.957 65.498c-1.529-1.671-3.66-2.507-5.641-2.507-5.14 0-7.771 4.179-7.747 8.693 0 4.598 2.633 8.554 7.747 8.554 1.88 0 3.836-.724 5.34-2.257V72.52h-6.117v-1.31h7.396v7.3c-1.83 2.034-4.011 3.149-6.618 3.149-5.967 0-9.051-4.625-9.051-9.947-.024-6.102 3.711-10.086 9.051-10.086 2.307 0 4.638.975 6.418 2.925l-.778.947zM415.683 99.093c-1.278-2.285-3.334-2.619-5.314-2.647-2.057 0-5.315.836-5.315 3.957 0 2.479 2.407 3.064 5.365 3.678 3.385.725 6.895 1.393 6.895 5.6-.025 4.402-4.012 5.461-6.944 5.461-2.733 0-5.842-1.254-7.195-4.235l1.203-.668c1.078 2.368 3.836 3.539 5.992 3.539 2.155 0 5.59-.669 5.59-4.124.025-2.925-2.883-3.566-5.766-4.179-3.209-.697-6.493-1.421-6.493-5.015-.075-4.124 3.785-5.405 6.669-5.405 2.507 0 4.688.446 6.418 3.315l-1.105.723zM437.117 105.111c-.024 5.127-2.958 10.059-8.85 10.059s-8.85-4.959-8.85-10.114c0-5.238 2.933-10.03 8.85-10.03s8.876 4.819 8.85 10.085zm-16.371-.028c.025 4.402 2.532 8.693 7.521 8.693 5.014 0 7.546-4.291 7.546-8.693 0-4.514-2.507-8.665-7.546-8.665s-7.545 4.068-7.521 8.665zM441.68 95.331v18.083h9.878v1.421h-11.231V95.331h1.353zM466.524 95.331v12.12c0 10.198-13.438 10.226-13.438 0v-12.12h1.329v12.12c0 8.387 10.78 8.359 10.78 0v-12.12h1.329zM475.199 96.696h-6.343v-1.337h14.039v1.337h-6.343v18.139h-1.354V96.696zM485.478 114.835V95.331h1.328v19.504h-1.328zM508.141 105.111c-.024 5.127-2.958 10.059-8.85 10.059s-8.85-4.959-8.85-10.114c0-5.238 2.933-10.03 8.85-10.03s8.875 4.819 8.85 10.085zm-16.371-.028c.025 4.402 2.532 8.693 7.521 8.693 5.014 0 7.546-4.291 7.546-8.693 0-4.514-2.507-8.665-7.546-8.665s-7.546 4.068-7.521 8.665zM511.951 95.331l11.809 16.132V95.331h1.328v19.504h-.526L512.729 98.73v16.104h-1.354V95.331h.576zM540.656 99.093c-1.278-2.285-3.334-2.619-5.314-2.647-2.056 0-5.315.836-5.315 3.957 0 2.479 2.407 3.064 5.365 3.678 3.385.725 6.895 1.393 6.895 5.6-.025 4.402-4.012 5.461-6.944 5.461-2.733 0-5.842-1.254-7.195-4.235l1.203-.668c1.078 2.368 3.836 3.539 5.992 3.539 2.155 0 5.59-.669 5.59-4.124.025-2.925-2.883-3.566-5.766-4.179-3.209-.697-6.493-1.421-6.493-5.015-.075-4.124 3.785-5.405 6.669-5.405 2.507 0 4.688.446 6.418 3.315l-1.105.723z"/></g><path fill="none" stroke="#211C50" stroke-width="2" stroke-miterlimit="10" d="M367.61 43.873v81.377"/></svg>